<svg xmlns="http://www.w3.org/2000/svg" width="512" height="512" viewBox="0 0 512 512">
  <defs>
    <linearGradient id="bg" x1="0" y1="0" x2="1" y2="1">
      <stop offset="0" stop-color="#0c3b1e"/>
      <stop offset="1" stop-color="#05200c"/>
    </linearGradient>
    <radialGradient id="lens" cx="0.35" cy="0.32" r="0.8">
      <stop offset="0" stop-color="#bdefff"/>
      <stop offset="0.4" stop-color="#5ad6ff"/>
      <stop offset="1" stop-color="#1d7fb0"/>
    </radialGradient>
    <linearGradient id="leaf" x1="0" y1="0" x2="1" y2="1">
      <stop offset="0" stop-color="#5bbf6f"/>
      <stop offset="1" stop-color="#2f7a41"/>
    </linearGradient>
  </defs>
  <rect width="512" height="512" rx="112" fill="url(#bg)"/>
  <!-- lens -->
  <circle cx="150" cy="150" r="58" fill="url(#lens)" stroke="#eafff0" stroke-width="8" opacity="0.95"/>
  <circle cx="132" cy="132" r="16" fill="#ffffff" opacity="0.9"/>
  <!-- status dots -->
  <circle cx="250" cy="120" r="11" fill="#ff5b5b"/>
  <circle cx="288" cy="120" r="11" fill="#ffd35c"/>
  <circle cx="326" cy="120" r="11" fill="#5bd97a"/>
  <!-- leaf -->
  <path d="M256 196 C176 220 150 320 196 392 C268 372 352 320 360 224 C320 214 286 200 256 196 Z" fill="url(#leaf)"/>
  <path d="M214 372 C236 318 290 268 348 238" fill="none" stroke="#eafff0" stroke-width="11" stroke-linecap="round" opacity="0.85"/>
  <path d="M250 322 l40 -16 M236 286 l34 -20" stroke="#eafff0" stroke-width="8" stroke-linecap="round" opacity="0.7"/>
</svg>
